<?xml version="1.0" encoding="UTF-8"?>
<svg width="24px" height="24px" viewBox="0 0 24 24" version="1.1" xmlns="http://www.w3.org/2000/svg">
    <path d="M24,12.073 C24,5.40541176 18.6275882,0 12,0 C5.37241176,0 0,5.40541176 0,12.073 C0,18.0988235 4.38823529,23.0941176 10.1247059,24 L10.1247059,15.5635294 L7.07764706,15.5635294 L7.07764706,12.073 L10.1247059,12.073 L10.1247059,9.41294118 C10.1247059,6.38752941 11.9164706,4.71529412 14.6576471,4.71529412 C15.9705882,4.71529412 17.3447059,4.95176471 17.3447059,4.95176471 L17.3447059,7.92141176 L15.8364706,7.92141176 C14.3505882,7.92141176 13.8752941,8.85176471 13.8752941,9.80705882 L13.8752941,12.073 L17.2024706,12.073 L16.6717647,15.5635294 L13.8752941,15.5635294 L13.8752941,24 C19.6117647,23.0941176 24,18.0988235 24,12.073" fill="#FFFFFF"></path>
</svg> 